<svg xmlns="http://www.w3.org/2000/svg" xmlns:xlink="http://www.w3.org/1999/xlink" width="500" zoomAndPan="magnify" viewBox="0 0 375 374.999991" height="500" preserveAspectRatio="xMidYMid meet" version="1.0"><defs><clipPath id="b8f2511be9"><path d="M 67.453125 67.453125 L 307.453125 67.453125 L 307.453125 307.453125 L 67.453125 307.453125 Z M 67.453125 67.453125 " clip-rule="nonzero"/></clipPath><clipPath id="69fc4c3563"><path d="M 107.355469 108.371094 L 266.355469 108.371094 L 266.355469 267.371094 L 107.355469 267.371094 Z M 107.355469 108.371094 " clip-rule="nonzero"/></clipPath></defs><g clip-path="url(#b8f2511be9)"><path fill="#373534" d="M 187.5 67.453125 C 121.171875 67.453125 67.453125 121.171875 67.453125 187.5 C 67.453125 253.824219 121.171875 307.546875 187.5 307.546875 C 253.824219 307.546875 307.546875 253.824219 307.546875 187.5 C 307.546875 121.171875 253.824219 67.453125 187.5 67.453125 Z M 187.5 67.453125 " fill-opacity="1" fill-rule="nonzero"/></g><g clip-path="url(#69fc4c3563)"><path fill="#fbfbfb" d="M 186.992188 108.371094 C 142.992188 108.371094 107.355469 144.007812 107.355469 188.003906 C 107.355469 232.003906 142.992188 267.640625 186.992188 267.640625 C 230.988281 267.640625 266.625 232.003906 266.625 188.003906 C 266.625 144.007812 230.988281 108.371094 186.992188 108.371094 Z M 186.992188 108.371094 " fill-opacity="1" fill-rule="nonzero"/></g></svg>